<?xml version="1.0" encoding="utf-8"?>
<!-- Generator: Adobe Illustrator 26.2.1, SVG Export Plug-In . SVG Version: 6.00 Build 0)  -->
<svg version="1.1" id="Layer_1" xmlns="http://www.w3.org/2000/svg" xmlns:xlink="http://www.w3.org/1999/xlink" x="0px" y="0px"
	 viewBox="0 0 576 576" style="enable-background:new 0 0 576 576;" xml:space="preserve">
<style type="text/css">
	.st0{fill:#FFFFFF;}
</style>
<g id="a">
</g>
<g id="b">
	<path class="st0" d="M497.1,334.2l31.1-53.9c-52.6-31.6-72.4-31.8-142-31.8L525.7,63.3l-8.5-11.9l-0.8-1.1
		c-39.1,39.1-84.1,9.8-162.7-40.8L199.6,98.7l1.3,174.1c0,118.3-54.1,139.9-75.2,143.8c-32-44.3-51.8-97.6-51.8-148
		c0-92.3,49.1-172.8,122.5-217.5l-6.1-10.6C97.9,84.7,33.8,178.9,33.8,288.3c0,151.8,101.1,270.2,252.9,270.2
		c67.2,0,142.4-30.5,203-61.7l-12.5-18.8c-24.6,11.8-56.8,23.2-92.2,30.9v-198C433.2,310.7,451.9,307.5,497.1,334.2L497.1,334.2z
		 M476.4,105.6L385,227V105.7C411.6,116.8,444.1,121.9,476.4,105.6L476.4,105.6z M353.9,514.4c-17.7,2.5-35.9,4-54.1,4
		c-56.4,0-110.3-30-151.2-74c42.8-16.9,114.6-60.6,114.6-163.6V100l61-35.2c0,0,11.4,11.7,29.7,23.9V514.4z"/>
</g>
</svg>
